<?xml version="1.0" encoding="utf-8"?>
<!-- Generator: Adobe Illustrator 20.0.0, SVG Export Plug-In . SVG Version: 6.00 Build 0)  -->
<svg version="1.1" id="Layer_2" xmlns="http://www.w3.org/2000/svg" xmlns:xlink="http://www.w3.org/1999/xlink" x="0px" y="0px"
	 viewBox="0 0 960 560" style="enable-background:new 0 0 960 560;" xml:space="preserve">
<style type="text/css">
	.st0{fill:#B6B5B6;}
	.st1{fill:none;stroke:#2D424B;stroke-miterlimit:10;}
	.st2{fill:#2D424B;}
	.st3{fill:#C0D668;}
	.st4{font-family:'Comfortaa-Light';}
	.st5{font-size:12px;}
</style>
<path class="st0" d="M353,167.7l10.7,4.3h7.1c6.5,25.1-17.8,34.5-17.8,34.5V167.7z"/>
<path class="st1" d="M353,206.5"/>
<path class="st1" d="M335.7,172"/>
<path class="st2" d="M363,182.2h-20.8c-0.6,0-1-0.4-1-1v-4.7c0-0.6,0.4-1,1-1H363c0.6,0,1,0.4,1,1v4.7
	C364,181.7,363.6,182.2,363,182.2z M358.3,179.1v-1c0-0.1-0.1-0.3-0.3-0.3h-1c-0.1,0-0.3,0.1-0.3,0.3v1c0,0.1,0.1,0.3,0.3,0.3h1
	C358.2,179.3,358.3,179.2,358.3,179.1z M362.1,179.1v-1c0-0.1-0.1-0.3-0.3-0.3h-1c-0.1,0-0.3,0.1-0.3,0.3v1c0,0.1,0.1,0.3,0.3,0.3h1
	C362,179.3,362.1,179.2,362.1,179.1z M354.1,179.1v-1c0-0.1-0.1-0.3-0.3-0.3h-10.1c-0.1,0-0.3,0.1-0.3,0.3v1c0,0.1,0.1,0.3,0.3,0.3
	h10.1C354,179.3,354.1,179.2,354.1,179.1z"/>
<path class="st3" d="M363,189.5h-20.8c-0.6,0-1-0.4-1-1v-5.4c0-0.6,0.4-1,1-1H363c0.6,0,1,0.4,1,1v5.4
	C364,189.1,363.6,189.5,363,189.5z M358.3,186.2v-1.2c0-0.1-0.1-0.3-0.3-0.3h-1c-0.1,0-0.3,0.1-0.3,0.3v1.2c0,0.1,0.1,0.3,0.3,0.3h1
	C358.2,186.4,358.3,186.3,358.3,186.2z M362.1,186.2v-1.2c0-0.1-0.1-0.3-0.3-0.3h-1c-0.1,0-0.3,0.1-0.3,0.3v1.2
	c0,0.1,0.1,0.3,0.3,0.3h1C362,186.4,362.1,186.3,362.1,186.2z M354.1,186.2v-1.2c0-0.1-0.1-0.3-0.3-0.3h-10.1
	c-0.1,0-0.3,0.1-0.3,0.3v1.2c0,0.1,0.1,0.3,0.3,0.3h10.1C354,186.4,354.1,186.3,354.1,186.2z"/>
<path class="st2" d="M363,196.7h-20.8c-0.6,0-1-0.4-1-1v-5.2c0-0.6,0.4-1,1-1H363c0.6,0,1,0.4,1,1v5.2
	C364,196.3,363.6,196.7,363,196.7z M358.3,193.4v-1.2c0-0.1-0.1-0.3-0.3-0.3h-1c-0.1,0-0.3,0.1-0.3,0.3v1.2c0,0.1,0.1,0.3,0.3,0.3h1
	C358.2,193.7,358.3,193.6,358.3,193.4z M362.1,193.4v-1.2c0-0.1-0.1-0.3-0.3-0.3h-1c-0.1,0-0.3,0.1-0.3,0.3v1.2
	c0,0.1,0.1,0.3,0.3,0.3h1C362,193.7,362.1,193.6,362.1,193.4z M354.1,193.4v-1.2c0-0.1-0.1-0.3-0.3-0.3h-10.1
	c-0.1,0-0.3,0.1-0.3,0.3v1.2c0,0.1,0.1,0.3,0.3,0.3h10.1C354,193.7,354.1,193.6,354.1,193.4z"/>
<path class="st1" d="M353,167.7l-11.6,4.3h-5.7c-8.9,23.3,17.3,34.5,17.3,34.5s24.3-9.4,17.8-34.5h-7.1L353,167.7z"/>
<text transform="matrix(1.0035 0 0 1 378.3745 192.834)" class="st2 st4 st5">BudgetNode</text>
</svg>
