<?xml version="1.0" encoding="utf-8"?>
<!-- Generator: Adobe Illustrator 20.0.0, SVG Export Plug-In . SVG Version: 6.00 Build 0)  -->
<svg version="1.1" id="Layer_2" xmlns="http://www.w3.org/2000/svg" xmlns:xlink="http://www.w3.org/1999/xlink" x="0px" y="0px"
	 viewBox="0 0 124.5 39.9" style="enable-background:new 0 0 124.5 39.9;" xml:space="preserve">
<style type="text/css">
	.st0{fill:#B6B5B6;}
	.st1{fill:none;stroke:#2D424B;stroke-miterlimit:10;}
	.st2{fill:#2D424B;}
	.st3{fill:#C0D668;}
</style>
<path class="st0" d="M19.6,0.5l10.7,4.3h7.1C43.9,30,19.6,39.3,19.6,39.3V0.5z"/>
<path class="st1" d="M19.6,39.3"/>
<path class="st1" d="M2.3,4.8"/>
<path class="st2" d="M29.7,15H8.8c-0.6,0-1-0.4-1-1V9.3c0-0.6,0.4-1,1-1h20.8c0.6,0,1,0.4,1,1V14C30.7,14.6,30.2,15,29.7,15z
	 M24.9,11.9v-1c0-0.1-0.1-0.3-0.3-0.3h-1c-0.1,0-0.3,0.1-0.3,0.3v1c0,0.1,0.1,0.3,0.3,0.3h1C24.8,12.2,24.9,12.1,24.9,11.9z
	 M28.7,11.9v-1c0-0.1-0.1-0.3-0.3-0.3h-1c-0.1,0-0.3,0.1-0.3,0.3v1c0,0.1,0.1,0.3,0.3,0.3h1C28.6,12.2,28.7,12.1,28.7,11.9z
	 M20.7,11.9v-1c0-0.1-0.1-0.3-0.3-0.3H10.4c-0.1,0-0.3,0.1-0.3,0.3v1c0,0.1,0.1,0.3,0.3,0.3h10.1C20.6,12.2,20.7,12.1,20.7,11.9z"/>
<path class="st3" d="M29.7,22.4H8.8c-0.6,0-1-0.4-1-1V16c0-0.6,0.4-1,1-1h20.8c0.6,0,1,0.4,1,1v5.4C30.7,21.9,30.2,22.4,29.7,22.4z
	 M24.9,19v-1.2c0-0.1-0.1-0.3-0.3-0.3h-1c-0.1,0-0.3,0.1-0.3,0.3V19c0,0.1,0.1,0.3,0.3,0.3h1C24.8,19.3,24.9,19.1,24.9,19z M28.7,19
	v-1.2c0-0.1-0.1-0.3-0.3-0.3h-1c-0.1,0-0.3,0.1-0.3,0.3V19c0,0.1,0.1,0.3,0.3,0.3h1C28.6,19.3,28.7,19.1,28.7,19z M20.7,19v-1.2
	c0-0.1-0.1-0.3-0.3-0.3H10.4c-0.1,0-0.3,0.1-0.3,0.3V19c0,0.1,0.1,0.3,0.3,0.3h10.1C20.6,19.3,20.7,19.1,20.7,19z"/>
<path class="st2" d="M29.7,29.6H8.8c-0.6,0-1-0.4-1-1v-5.2c0-0.6,0.4-1,1-1h20.8c0.6,0,1,0.4,1,1v5.2C30.7,29.1,30.2,29.6,29.7,29.6
	z M24.9,26.3v-1.2c0-0.1-0.1-0.3-0.3-0.3h-1c-0.1,0-0.3,0.1-0.3,0.3v1.2c0,0.1,0.1,0.3,0.3,0.3h1C24.8,26.5,24.9,26.4,24.9,26.3z
	 M28.7,26.3v-1.2c0-0.1-0.1-0.3-0.3-0.3h-1c-0.1,0-0.3,0.1-0.3,0.3v1.2c0,0.1,0.1,0.3,0.3,0.3h1C28.6,26.5,28.7,26.4,28.7,26.3z
	 M20.7,26.3v-1.2c0-0.1-0.1-0.3-0.3-0.3H10.4c-0.1,0-0.3,0.1-0.3,0.3v1.2c0,0.1,0.1,0.3,0.3,0.3h10.1C20.6,26.5,20.7,26.4,20.7,26.3
	z"/>
<path class="st1" d="M19.6,0.5L8,4.8H2.3c-8.9,23.3,17.3,34.5,17.3,34.5S43.9,30,37.4,4.8h-7.1L19.6,0.5z"/>
<g>
	<path class="st2" d="M47.8,16.3c0.6,0,1.2,0.2,1.6,0.7s0.7,1,0.7,1.6s-0.3,1.2-0.8,1.7c0.4,0.2,0.7,0.4,0.9,0.6
		c0.5,0.5,0.8,1.2,0.8,2c0,0.8-0.3,1.4-0.8,2c-0.5,0.5-1.2,0.8-2,0.8h-2.4c-0.1,0-0.2,0-0.3-0.1c-0.1-0.1-0.1-0.2-0.1-0.3v-8.6
		c0-0.1,0-0.2,0.1-0.3c0.1-0.1,0.2-0.1,0.3-0.1H47.8z M46.2,17v3.1h1.6c0.4,0,0.8-0.2,1.1-0.5c0.3-0.3,0.5-0.7,0.5-1.1
		s-0.2-0.8-0.5-1.1c-0.3-0.3-0.7-0.5-1.1-0.5H46.2z M46.2,20.9V25h2.1c0.6,0,1.1-0.2,1.4-0.6c0.4-0.4,0.6-0.9,0.6-1.4
		c0-0.6-0.2-1-0.6-1.4c-0.4-0.4-0.9-0.6-1.4-0.6H46.2z"/>
	<path class="st2" d="M58.9,25.3c0,0.1,0,0.2-0.1,0.3c-0.1,0.1-0.2,0.1-0.3,0.1s-0.2,0-0.3-0.1c-0.1-0.1-0.1-0.2-0.1-0.3v-0.7
		c-0.7,0.7-1.5,1-2.3,1c-0.8,0-1.6-0.3-2.2-0.9c-0.6-0.6-0.9-1.3-0.9-2.2v-3.2c0-0.1,0-0.2,0.1-0.3c0.1-0.1,0.2-0.1,0.3-0.1
		s0.2,0,0.3,0.1c0.1,0.1,0.1,0.2,0.1,0.3v3.2c0,0.6,0.2,1.2,0.7,1.6c0.5,0.5,1,0.7,1.6,0.7c0.6,0,1.2-0.2,1.6-0.7
		c0.5-0.4,0.7-1,0.7-1.6v-3.2c0-0.1,0-0.2,0.1-0.3c0.1-0.1,0.2-0.1,0.3-0.1s0.2,0,0.3,0.1c0.1,0.1,0.1,0.2,0.1,0.3V25.3z"/>
	<path class="st2" d="M66.5,16.7c0-0.1,0-0.2,0.1-0.3c0.1-0.1,0.2-0.1,0.3-0.1c0.1,0,0.2,0,0.3,0.1c0.1,0.1,0.1,0.2,0.1,0.3v5.7
		c0,0.9-0.3,1.7-1,2.3c-0.6,0.6-1.4,1-2.3,1c-0.9,0-1.7-0.3-2.3-1c-0.6-0.6-1-1.4-1-2.3s0.3-1.7,1-2.3c0.6-0.6,1.4-1,2.3-1
		c0.9,0,1.7,0.3,2.3,1l0.2,0.2V16.7z M66.5,22.4c0-0.7-0.2-1.3-0.7-1.8c-0.5-0.5-1.1-0.8-1.8-0.8c-0.7,0-1.3,0.3-1.8,0.8
		c-0.5,0.5-0.8,1.1-0.8,1.8s0.3,1.3,0.8,1.8c0.5,0.5,1.1,0.8,1.8,0.8c0.7,0,1.3-0.3,1.8-0.8C66.2,23.7,66.5,23.1,66.5,22.4z"/>
	<path class="st2" d="M74.8,24.5c-0.7,0.8-1.6,1.2-2.6,1.2c-0.9,0-1.7-0.3-2.3-1c-0.6-0.6-1-1.4-1-2.3c0-0.9,0.3-1.7,1-2.3
		c0.6-0.6,1.4-1,2.3-1c0.9,0,1.7,0.3,2.3,1c0.6,0.6,1,1.4,1,2.3v3.3c0,0.7-0.2,1.3-0.7,1.8c-0.7,0.7-1.5,1-2.5,1s-1.8-0.3-2.5-1
		c-0.3-0.2-0.5-0.5-0.6-0.8c0-0.1-0.1-0.1-0.1-0.2c0-0.1,0-0.2,0.1-0.3c0.1-0.1,0.2-0.1,0.3-0.1s0.2,0,0.3,0.1c0,0,0.1,0.1,0.1,0.1
		c0.1,0.2,0.3,0.4,0.5,0.6c0.3,0.3,0.6,0.5,0.9,0.6c0.3,0.1,0.7,0.2,1.1,0.2c0.8,0,1.4-0.3,2-0.8c0.3-0.4,0.5-0.8,0.5-1.2V24.5z
		 M72.2,19.8c-0.7,0-1.3,0.2-1.8,0.7c-0.5,0.5-0.8,1.1-0.8,1.8c0,0.7,0.3,1.3,0.8,1.8c0.5,0.5,1.1,0.8,1.8,0.8s1.3-0.3,1.8-0.8
		c0.5-0.5,0.7-1.1,0.7-1.8c0-0.7-0.2-1.3-0.7-1.8C73.5,20.1,72.9,19.8,72.2,19.8z"/>
	<path class="st2" d="M82.3,24.3c0.1,0,0.2,0,0.3,0.1c0.1,0.1,0.1,0.2,0.1,0.3s0,0.2-0.1,0.3c-0.6,0.5-1.3,0.8-2.1,0.8
		c-0.9,0-1.7-0.3-2.3-1c-0.6-0.6-1-1.4-1-2.3s0.3-1.7,1-2.3c0.6-0.6,1.4-1,2.3-1c0.9,0,1.7,0.3,2.3,1c0.6,0.6,1,1.4,1,2.3
		c0,0.1,0,0.2-0.1,0.3c-0.1,0.1-0.2,0.1-0.3,0.1h-5.5c0.1,0.6,0.4,1.1,0.7,1.4c0.5,0.5,1.1,0.8,1.8,0.8c0.3,0,0.6-0.1,0.9-0.2
		s0.5-0.3,0.8-0.4C82.2,24.3,82.3,24.3,82.3,24.3z M83,22c-0.1-0.6-0.4-1.1-0.7-1.4c-0.5-0.5-1.1-0.8-1.8-0.8s-1.3,0.3-1.8,0.8
		C78.3,21,78,21.5,77.9,22H83z"/>
	<path class="st2" d="M88.8,25c0.1,0,0.2,0,0.3,0.1c0.1,0.1,0.1,0.2,0.1,0.3s0,0.2-0.1,0.3c-0.1,0.1-0.2,0.1-0.3,0.1
		c-1.5,0-2.3-0.8-2.3-2.3v-3.5h-0.6c-0.1,0-0.2,0-0.3-0.1c-0.1-0.1-0.1-0.2-0.1-0.3s0-0.2,0.1-0.3c0.1-0.1,0.2-0.1,0.3-0.1h0.6v-2.5
		c0-0.1,0-0.2,0.1-0.3c0.1-0.1,0.2-0.1,0.3-0.1s0.2,0,0.3,0.1c0.1,0.1,0.1,0.2,0.1,0.3v2.5h1.1c0.1,0,0.2,0,0.3,0.1
		c0.1,0.1,0.1,0.2,0.1,0.3s0,0.2-0.1,0.3c-0.1,0.1-0.2,0.1-0.3,0.1h-1.1v3.5C87.2,24.4,87.7,25,88.8,25z"/>
	<path class="st2" d="M91.6,25.3c0,0.1,0,0.2-0.1,0.3c-0.1,0.1-0.2,0.1-0.3,0.1s-0.2,0-0.3-0.1c-0.1-0.1-0.1-0.2-0.1-0.3v-8.6
		c0-0.1,0-0.2,0.1-0.3c0.1-0.1,0.2-0.1,0.3-0.1c0.1,0,0.2,0,0.3,0.1l6.1,7.8v-7.6c0-0.1,0-0.2,0.1-0.3c0.1-0.1,0.2-0.1,0.3-0.1
		c0.1,0,0.2,0,0.3,0.1c0.1,0.1,0.1,0.2,0.1,0.3v8.6c0,0.1,0,0.2-0.1,0.3c-0.1,0.1-0.2,0.1-0.3,0.1c-0.1,0-0.2,0-0.3-0.1l-6.1-7.9
		V25.3z"/>
	<path class="st2" d="M106.7,22.4c0,0.9-0.3,1.7-1,2.3c-0.6,0.6-1.4,1-2.3,1c-0.9,0-1.7-0.3-2.3-1c-0.6-0.6-1-1.4-1-2.3
		s0.3-1.7,1-2.3c0.6-0.6,1.4-1,2.3-1c0.9,0,1.7,0.3,2.3,1C106.4,20.7,106.7,21.5,106.7,22.4z M103.4,19.8c-0.7,0-1.3,0.3-1.8,0.8
		c-0.5,0.5-0.8,1.1-0.8,1.8s0.3,1.3,0.8,1.8c0.5,0.5,1.1,0.8,1.8,0.8s1.3-0.3,1.8-0.8c0.5-0.5,0.7-1.1,0.7-1.8s-0.2-1.3-0.7-1.8
		C104.7,20.1,104.1,19.8,103.4,19.8z"/>
	<path class="st2" d="M114.2,16.7c0-0.1,0-0.2,0.1-0.3c0.1-0.1,0.2-0.1,0.3-0.1c0.1,0,0.2,0,0.3,0.1c0.1,0.1,0.1,0.2,0.1,0.3v5.7
		c0,0.9-0.3,1.7-1,2.3c-0.6,0.6-1.4,1-2.3,1c-0.9,0-1.7-0.3-2.3-1c-0.6-0.6-1-1.4-1-2.3s0.3-1.7,1-2.3c0.6-0.6,1.4-1,2.3-1
		c0.9,0,1.7,0.3,2.3,1l0.2,0.2V16.7z M114.2,22.4c0-0.7-0.2-1.3-0.7-1.8c-0.5-0.5-1.1-0.8-1.8-0.8s-1.3,0.3-1.8,0.8
		c-0.5,0.5-0.8,1.1-0.8,1.8s0.3,1.3,0.8,1.8c0.5,0.5,1.1,0.8,1.8,0.8s1.3-0.3,1.8-0.8C114,23.7,114.2,23.1,114.2,22.4z"/>
	<path class="st2" d="M121.8,24.3c0.1,0,0.2,0,0.3,0.1c0.1,0.1,0.1,0.2,0.1,0.3s0,0.2-0.1,0.3c-0.6,0.5-1.3,0.8-2.1,0.8
		c-0.9,0-1.7-0.3-2.3-1c-0.6-0.6-1-1.4-1-2.3s0.3-1.7,1-2.3c0.6-0.6,1.4-1,2.3-1c0.9,0,1.7,0.3,2.3,1c0.6,0.6,1,1.4,1,2.3
		c0,0.1,0,0.2-0.1,0.3c-0.1,0.1-0.2,0.1-0.3,0.1h-5.5c0.1,0.6,0.4,1.1,0.7,1.4c0.5,0.5,1.1,0.8,1.8,0.8c0.3,0,0.6-0.1,0.9-0.2
		s0.5-0.3,0.8-0.4C121.7,24.3,121.7,24.3,121.8,24.3z M122.5,22c-0.1-0.6-0.4-1.1-0.7-1.4c-0.5-0.5-1.1-0.8-1.8-0.8
		s-1.3,0.3-1.8,0.8c-0.4,0.4-0.6,0.9-0.7,1.4H122.5z"/>
</g>
</svg>
